<svg xmlns="http://www.w3.org/2000/svg" width="127.575" height="17.787" viewBox="0 0 127.575 17.787">
  <g id="Grupo_7" data-name="Grupo 7" transform="translate(-239.485 -371.339)">
    <g id="Grupo_3" data-name="Grupo 3" transform="translate(239.485 371.339)">
      <path id="Caminho_4" data-name="Caminho 4" d="M257.358,371.339s-9.432,6.386-.941,12.066a28,28,0,0,1-.432-2.8,32.2,32.2,0,0,0,6.912,4.718c.408-.944.64-3.443-1.3-6.125C259.919,376.887,257.237,374.157,257.358,371.339Z" transform="translate(-250.473 -371.339)" fill="#c7c7c7"/>
      <path id="Caminho_5" data-name="Caminho 5" d="M251.55,415.242a29.547,29.547,0,0,1-4.808-2.981l.659,2.752s-6.733-3.286-6.292-8.14c-1.105,1.9-3.222,6.95.416,9.888a6.141,6.141,0,0,0,1.489.887C247.607,419.576,250.934,416.679,251.55,415.242Z" transform="translate(-239.485 -400.501)" fill="#c7c7c7"/>
    </g>
    <g id="Grupo_5" data-name="Grupo 5" transform="translate(364.011 385.001)">
      <g id="Grupo_4" data-name="Grupo 4" transform="translate(0.842 0.596)">
        <path id="Caminho_6" data-name="Caminho 6" d="M938.751,452.591v-1.727h.734a1.253,1.253,0,0,1,.4.046.4.4,0,0,1,.2.166.5.5,0,0,1,.076.272.462.462,0,0,1-.114.321.549.549,0,0,1-.342.16.8.8,0,0,1,.187.145,1.974,1.974,0,0,1,.2.28l.21.337h-.417l-.252-.376a2.494,2.494,0,0,0-.184-.254.266.266,0,0,0-.105-.072.558.558,0,0,0-.176-.02h-.07v.721Zm.349-1h.258a1.312,1.312,0,0,0,.313-.021.187.187,0,0,0,.1-.073.224.224,0,0,0,.035-.129.209.209,0,0,0-.047-.141.213.213,0,0,0-.131-.068c-.028,0-.113-.006-.254-.006H939.1Z" transform="translate(-938.751 -450.865)" fill="#c7c7c7"/>
      </g>
      <path id="Caminho_7" data-name="Caminho 7" d="M937.106,449.068a1.525,1.525,0,1,1-1.525-1.525A1.525,1.525,0,0,1,937.106,449.068Zm-1.525,1.288a1.288,1.288,0,1,0-1.288-1.288,1.29,1.29,0,0,0,1.288,1.288Z" transform="translate(-934.057 -447.543)" fill="#c7c7c7"/>
    </g>
    <g id="Grupo_6" data-name="Grupo 6" transform="translate(258.345 375.345)">
      <path id="Caminho_8" data-name="Caminho 8" d="M354.343,402.588c0,2.729-1.657,4.553-4.185,4.553a3.408,3.408,0,0,1-2.9-1.406v1.306h-2.578V394.62h2.578v4.737a3.337,3.337,0,0,1,2.846-1.406C352.635,397.951,354.343,399.809,354.343,402.588Zm-2.611-.084A2.248,2.248,0,1,0,349.5,405,2.263,2.263,0,0,0,351.731,402.5Z" transform="translate(-344.684 -394.452)" fill="#c7c7c7"/>
      <path id="Caminho_9" data-name="Caminho 9" d="M413.947,422.672h-2.561v-1.59a3.193,3.193,0,0,1-3.013,1.691,3.116,3.116,0,0,1-3.248-3.448v-5.658H407.7v4.921a1.63,1.63,0,0,0,1.691,1.825,2.059,2.059,0,0,0,1.992-2.293v-4.453h2.561Z" transform="translate(-394.289 -410.084)" fill="#c7c7c7"/>
      <path id="Caminho_10" data-name="Caminho 10" d="M467.826,414.83a3.277,3.277,0,0,1,2.979-1.724v2.427c-1.841-.167-2.979.82-2.979,2.344v4.335h-2.578v-9.006h2.578Z" transform="translate(-443.633 -409.624)" fill="#c7c7c7"/>
      <path id="Caminho_11" data-name="Caminho 11" d="M510.114,416.554v5.658h-2.578v-4.9a1.672,1.672,0,0,0-1.774-1.841,2.085,2.085,0,0,0-2.059,2.31v4.436h-2.578v-9.006H503.7v1.574a3.362,3.362,0,0,1,3.113-1.674A3.153,3.153,0,0,1,510.114,416.554Z" transform="translate(-473.078 -409.624)" fill="#c7c7c7"/>
      <path id="Caminho_12" data-name="Caminho 12" d="M562.588,412.668a4.8,4.8,0,0,1-2.343.619,2.6,2.6,0,0,1-2.829-2.779v-4.168H556.16v-1.774h1.256v-2.477h2.561v2.477h2.444v1.791h-2.444v3.716c0,.753.318,1.055.87,1.038a3,3,0,0,0,1.205-.335Z" transform="translate(-518.246 -400.582)" fill="#c7c7c7"/>
      <path id="Caminho_13" data-name="Caminho 13" d="M608.037,401.382v5.658h-2.578v-4.9a1.672,1.672,0,0,0-1.774-1.841,2.1,2.1,0,0,0-2.076,2.31v4.436h-2.578V394.62h2.578v5a3.375,3.375,0,0,1,3.113-1.691A3.157,3.157,0,0,1,608.037,401.382Z" transform="translate(-553.431 -394.452)" fill="#c7c7c7"/>
      <path id="Caminho_14" data-name="Caminho 14" d="M664.736,418.573h-6.461a2.3,2.3,0,0,0,2.327,1.808,3.192,3.192,0,0,0,2.276-.954l1.356,1.373a5.022,5.022,0,0,1-3.85,1.59,4.6,4.6,0,1,1-.067-9.19C663.48,413.2,664.953,415.292,664.736,418.573Zm-2.41-1.523a1.88,1.88,0,0,0-1.992-1.958,2.112,2.112,0,0,0-2.109,1.958Z" transform="translate(-599.923 -409.701)" fill="#c7c7c7"/>
      <path id="Caminho_15" data-name="Caminho 15" d="M710.2,396.665a2.987,2.987,0,0,1,3.331-2.98,4.943,4.943,0,0,1,1.724.335l-.067,2.159a2.133,2.133,0,0,0-1.138-.4,1.221,1.221,0,0,0-1.289,1.289v.536h2.143l-.017,1.774h-2.126v6.9H710.2v-6.9H709l.017-1.774H710.2Zm8.553,9.608h-2.578v-12.42h2.578Z" transform="translate(-643.681 -393.685)" fill="#c7c7c7"/>
      <path id="Caminho_16" data-name="Caminho 16" d="M776.951,421.157a3.464,3.464,0,0,1-2.829,1.172,2.79,2.79,0,0,1-3.1-2.812c0-1.691,1.222-2.695,3.431-2.712h2.477v-.168c0-.954-.636-1.507-1.875-1.507a5.7,5.7,0,0,0-2.678.787l-.8-1.774a8.444,8.444,0,0,1,4.068-1.038c2.41,0,3.8,1.205,3.816,3.231l.017,5.876h-2.528Zm-.017-2.025v-.8h-2.025c-.987,0-1.473.3-1.473,1.021,0,.686.536,1.138,1.406,1.138A1.992,1.992,0,0,0,776.934,419.132Z" transform="translate(-694.589 -409.624)" fill="#c7c7c7"/>
      <path id="Caminho_17" data-name="Caminho 17" d="M831.252,414.017l-.887,1.758a6.092,6.092,0,0,0-2.745-.87c-.6,0-1.038.2-1.038.67,0,1.356,4.754.67,4.737,3.85,0,1.841-1.624,2.812-3.666,2.812a6.288,6.288,0,0,1-3.9-1.255l.837-1.741a5.427,5.427,0,0,0,3.13,1.121c.653,0,1.138-.218,1.138-.7,0-1.44-4.67-.67-4.67-3.833,0-1.858,1.59-2.812,3.549-2.812A6.716,6.716,0,0,1,831.252,414.017Z" transform="translate(-737.864 -409.548)" fill="#c7c7c7"/>
      <path id="Caminho_18" data-name="Caminho 18" d="M882.678,401.382v5.658H880.1v-4.9a1.672,1.672,0,0,0-1.774-1.841,2.1,2.1,0,0,0-2.076,2.31v4.436h-2.578V394.62h2.578v5a3.375,3.375,0,0,1,3.113-1.691A3.157,3.157,0,0,1,882.678,401.382Z" transform="translate(-778.833 -394.452)" fill="#c7c7c7"/>
    </g>
  </g>
</svg>
