<svg xmlns="http://www.w3.org/2000/svg" width="102.973" height="28" viewBox="0 0 102.973 28">
  <g id="logo" transform="translate(51.486 14)">
    <g id="Grupo_10" data-name="Grupo 10" transform="translate(-51.486 -14)">
      <g id="Grupo_9" data-name="Grupo 9" transform="translate(0 9.847)">
        <path id="Caminho_39" data-name="Caminho 39" d="M0,54.545l3.133-3.233A7.83,7.83,0,0,0,8.554,53.7c1.144,0,1.989-.5,1.989-1.293s-.472-1.02-2.934-1.989-4.575-2.263-4.575-4.849c0-3.481,3.158-5.968,7.435-5.968a10.051,10.051,0,0,1,7.186,2.611l-2.984,3.357a7.069,7.069,0,0,0-4.65-1.94c-1.169,0-1.915.547-1.915,1.243s.522.945,2.934,1.915,4.551,2.263,4.551,4.9c0,3.606-3.108,6.067-7.46,6.067A10.811,10.811,0,0,1,0,54.545Z" transform="translate(0 -39.6)" fill="#f6f5f5"/>
        <path id="Caminho_40" data-name="Caminho 40" d="M68.825,40.8h5.744c2.86,0,4.75.572,6.018,1.865a4.175,4.175,0,0,1,1.368,3.581c0,4.352-3.531,7.062-8.728,7.062H70.342L69,58.356H64.1Zm3.755,4.1" transform="translate(-48.16 -40.502)" fill="#f6f5f5"/>
        <path id="Caminho_41" data-name="Caminho 41" d="M126.81,40.6h4.774l2.735,17.68H129.2l-.423-3.158H122.01L119.9,58.255h-5.3Z" transform="translate(-86.103 -40.351)" fill="#f6f5f5"/>
        <path id="Caminho_42" data-name="Caminho 42" d="M205.1,40.8h6.615c2.934,0,4.874.647,6.043,1.84a4.4,4.4,0,0,1,1.343,3.581c0,2.934-1.691,5.247-5.272,6.217l2.71,5.918h-5.346l-2.337-5.321h-2.163l-1.417,5.321H200.4Z" transform="translate(-150.567 -40.502)" fill="#f6f5f5"/>
        <path id="Caminho_43" data-name="Caminho 43" d="M277.7,40.8h4.9l-1.915,7.012L287.92,40.8h6.192l-8.355,7.46,4,10.071h-5.272l-2.536-6.739-3.034,2.785-1.044,3.979H273Z" transform="translate(-205.114 -40.502)" fill="#f6f5f5"/>
        <path id="Caminho_44" data-name="Caminho 44" d="M343.1,54.545l3.133-3.233a7.83,7.83,0,0,0,5.421,2.387c1.144,0,1.989-.5,1.989-1.293s-.472-1.02-2.934-1.989-4.576-2.263-4.576-4.849c0-3.481,3.158-5.968,7.435-5.968a10.051,10.051,0,0,1,7.187,2.611l-2.984,3.357a7.069,7.069,0,0,0-4.65-1.94c-1.169,0-1.915.547-1.915,1.243s.522.945,2.934,1.915,4.551,2.263,4.551,4.9c0,3.606-3.108,6.067-7.46,6.067A10.811,10.811,0,0,1,343.1,54.545Z" transform="translate(-257.782 -39.6)" fill="#f6f5f5"/>
      </g>
      <path id="Caminho_45" data-name="Caminho 45" d="M316.692,5.048l-5.023.05L314.9,0h-5.968L305.9,7.659h3.009L306.8,14.6Z" transform="translate(-229.833)" fill="#f54b64"/>
    </g>
  </g>
</svg>
