<svg xmlns="http://www.w3.org/2000/svg" width="216.193" height="89.308" viewBox="0 0 216.193 89.308">
  <g id="Grupo_35" data-name="Grupo 35" transform="translate(-79 -288.998)">
    <path id="Caminho_53" data-name="Caminho 53" d="M6.438,8.5h8.883l-3.43,19.425H23.755l-1.209,6.887H1.8Z" transform="translate(77.702 282.887)" fill="none" stroke="#f54b64" stroke-miterlimit="10" stroke-width="0.843"/>
    <path id="Caminho_54" data-name="Caminho 54" d="M107.379,28.121l-1.181,6.69H84.3L88.938,8.5h21.392l-1.153,6.69H96.5l-.562,3.064H107.07l-1.124,6.409H94.813l-.59,3.458Z" transform="translate(18.393 282.887)" fill="none" stroke="#f54b64" stroke-miterlimit="10" stroke-width="0.843"/>
    <path id="Caminho_55" data-name="Caminho 55" d="M187.2,15.359h-7.7L180.709,8.5H205l-1.209,6.859h-7.73l-3.4,19.453h-8.883Z" transform="translate(-50.045 282.887)" fill="none" stroke="#f54b64" stroke-miterlimit="10" stroke-width="0.843"/>
    <path id="Caminho_56" data-name="Caminho 56" d="M280.916,6.307c-.225,1.209-.534,2.108-2.333,4.919l-3.626,5.622H269.7l3.008-6.353c-1.377-.7-2.052-2.193-1.715-4.16A5.757,5.757,0,0,1,276.812,1.5C279.679,1.5,281.422,3.383,280.916,6.307Z" transform="translate(-114.889 287.92)" fill="none" stroke="#f54b64" stroke-miterlimit="10" stroke-width="0.843"/>
    <path id="Caminho_57" data-name="Caminho 57" d="M301.9,31.122l3.992-6.465a15.77,15.77,0,0,0,8.265,2.418c2.53,0,3.514-.534,3.682-1.434.59-3.317-14.449-.647-12.706-10.457C306,10.292,310.783,6.3,318.963,6.3a18.551,18.551,0,0,1,9.53,2.305l-3.823,6.437a14.234,14.234,0,0,0-7-1.968c-2.305,0-3.542.759-3.711,1.659-.562,3.148,14.449.534,12.762,10.232-.843,4.807-5.65,8.883-13.831,8.883C308.506,33.82,304.261,32.752,301.9,31.122Z" transform="translate(-138.038 284.469)" fill="none" stroke="#f54b64" stroke-miterlimit="10" stroke-width="0.843"/>
    <path id="Caminho_58" data-name="Caminho 58" d="M160,140.622l3.992-6.465a15.77,15.77,0,0,0,8.265,2.418c2.53,0,3.514-.534,3.682-1.434.59-3.317-14.449-.647-12.706-10.457.871-4.891,5.65-8.883,13.831-8.883a18.551,18.551,0,0,1,9.53,2.305l-3.823,6.437a14.234,14.234,0,0,0-7-1.968c-2.305,0-3.542.759-3.711,1.659-.562,3.148,14.449.534,12.762,10.232-.843,4.807-5.65,8.883-13.831,8.883C166.606,143.32,162.361,142.252,160,140.622Z" transform="translate(-36.027 205.75)" fill="none" stroke="#f54b64" stroke-miterlimit="10" stroke-width="0.843"/>
    <path id="Caminho_59" data-name="Caminho 59" d="M263.93,124.859H256.2L257.437,118h24.288l-1.209,6.859h-7.73l-3.43,19.453H260.5Z" transform="translate(-105.184 204.169)" fill="none" stroke="#f54b64" stroke-miterlimit="10" stroke-width="0.843"/>
    <path id="Caminho_60" data-name="Caminho 60" d="M345.389,139.73H335.382l-2.586,4.582h-9L339.936,118h8.714l6.859,26.312h-9.164Zm-1.321-6.381-1.377-6.634-3.711,6.606Z" transform="translate(-153.781 204.169)" fill="none" stroke="#f54b64" stroke-miterlimit="10" stroke-width="0.843"/>
    <path id="Caminho_61" data-name="Caminho 61" d="M454.225,137.706h-2.418l-1.181,6.606H441.8L446.438,118h12.678c7.337,0,11.329,3.823,10.232,9.923a11.016,11.016,0,0,1-6.409,8.265l4.1,8.124h-9.5Zm3.092-12.847h-3.233l-1.1,6.156h3.233c2.446,0,3.823-1.153,4.16-3.092s-.618-3.092-3.064-3.092Z" transform="translate(-238.611 204.169)" fill="none" stroke="#f54b64" stroke-miterlimit="10" stroke-width="0.843"/>
    <path id="Caminho_62" data-name="Caminho 62" d="M552.9,124.859h-7.7L546.409,118H570.7l-1.209,6.859h-7.7l-3.43,19.453h-8.883Z" transform="translate(-312.944 204.169)" fill="none" stroke="#f54b64" stroke-miterlimit="10" stroke-width="0.843"/>
    <path id="Caminho_63" data-name="Caminho 63" d="M328.617,244.33H318.61l-2.586,4.582H307L323.136,222.6h8.714l6.859,26.312h-9.136Zm-1.321-6.381-1.377-6.606-3.739,6.578Z" transform="translate(-141.704 128.973)" fill="#f54b64"/>
    <path id="Caminho_64" data-name="Caminho 64" d="M454.413,229.218l-.787,4.5h10.991l-1.181,6.69H452.445l-1.49,8.433H442.1l4.638-26.34h21.392l-1.181,6.718Z" transform="translate(-238.826 129.045)" fill="none" stroke="#f54b64" stroke-miterlimit="10" stroke-width="0.843"/>
    <path id="Caminho_65" data-name="Caminho 65" d="M532.838,222.5h8.883l-4.638,26.34H528.2Z" transform="translate(-300.723 129.045)" fill="none" stroke="#f54b64" stroke-miterlimit="10" stroke-width="0.843"/>
    <path id="Caminho_66" data-name="Caminho 66" d="M587.453,242.206h-2.418l-1.181,6.606H575l4.638-26.312h12.678c7.337,0,11.329,3.823,10.232,9.923a11.016,11.016,0,0,1-6.409,8.265l4.1,8.124H590.77Zm3.092-12.847h-3.233l-1.1,6.156h3.233c2.446,0,3.823-1.153,4.16-3.092S592.991,229.359,590.545,229.359Z" transform="translate(-334.367 129.045)" fill="none" stroke="#f54b64" stroke-miterlimit="10" stroke-width="0.843"/>
    <path id="Caminho_67" data-name="Caminho 67" d="M697.751,242.149l-1.181,6.69H674.7l4.638-26.34h21.392l-1.181,6.718H686.872l-.534,3.064H697.47l-1.124,6.409H685.213l-.618,3.458Z" transform="translate(-406.041 129.045)" fill="none" stroke="#f54b64" stroke-miterlimit="10" stroke-width="0.843"/>
  </g>
</svg>
